<?xml version="1.0" encoding="utf-8"?>
<!-- Generator: Adobe Illustrator 24.3.0, SVG Export Plug-In . SVG Version: 6.00 Build 0)  -->
<svg version="1.1" id="Layer_1" xmlns="http://www.w3.org/2000/svg" xmlns:xlink="http://www.w3.org/1999/xlink" x="0px" y="0px"
	 viewBox="0 0 864 864" style="enable-background:new 0 0 864 864;" xml:space="preserve">
<style type="text/css">
	.st0{fill:none;stroke:#4EC6A0;stroke-width:15;stroke-miterlimit:10;}
	.st1{fill:none;stroke:#4EC6A0;stroke-width:20;stroke-linecap:round;stroke-miterlimit:10;}
</style>
<g>
	<g>
		<path class="st0" d="M299.5,266c12.5,0,22.6,10.1,22.6,22.6s-10.1,22.6-22.6,22.6s-22.6-10.1-22.6-22.6
			C276.9,276.1,287,266,299.5,266 M299.5,243c-25.2,0-45.6,20.4-45.6,45.6s20.4,45.6,45.6,45.6c25.2,0,45.6-20.4,45.6-45.6
			C345.1,263.4,324.7,243,299.5,243L299.5,243z"/>
	</g>
	<g>
		<path class="st0" d="M308.4,552.8c12.5,0,22.6,10.1,22.6,22.6c0,12.5-10.1,22.6-22.6,22.6s-22.6-10.1-22.6-22.6
			C285.8,562.9,296,552.8,308.4,552.8 M308.4,529.8c-25.2,0-45.6,20.4-45.6,45.6s20.4,45.6,45.6,45.6c25.2,0,45.6-20.4,45.6-45.6
			S333.6,529.8,308.4,529.8L308.4,529.8z"/>
	</g>
	<g>
		<path class="st0" d="M564.5,471.2c12.5,0,22.6,10.1,22.6,22.6s-10.1,22.6-22.6,22.6c-12.5,0-22.6-10.1-22.6-22.6
			S552,471.2,564.5,471.2 M564.5,448.3c-25.2,0-45.6,20.4-45.6,45.6c0,25.2,20.4,45.6,45.6,45.6s45.6-20.4,45.6-45.6
			S589.7,448.3,564.5,448.3L564.5,448.3z"/>
	</g>
	<path class="st1" d="M469.4,582.4V416.9c0-16.5-15.3-23.9-31.8-23.9h-92.5c-26.7-0.1-45.8-0.4-45.6-42.8v-9"/>
	<path class="st1" d="M455.9,460.2H334.2c-14.3,2-25.8,13.5-25.8,27.8v31.8"/>
	<line class="st1" x1="472.4" y1="494.4" x2="510.3" y2="494.4"/>
</g>
</svg>
